<svg width="35" height="35" viewBox="0 0 35 35" fill="none" xmlns="http://www.w3.org/2000/svg">
<path d="M8.75022 14.7661C12.0727 14.7661 14.7661 12.0727 14.7661 8.75022C14.7661 5.42776 12.0727 2.73438 8.75022 2.73438C5.42776 2.73438 2.73438 5.42776 2.73438 8.75022C2.73438 12.0727 5.42776 14.7661 8.75022 14.7661Z" fill="white"/>
<path d="M26.2514 17.5028C31.0847 17.5028 35.0028 13.5847 35.0028 8.75141C35.0028 3.91814 31.0847 0 26.2514 0C21.4181 0 17.5 3.91814 17.5 8.75141C17.5 13.5847 21.4181 17.5028 26.2514 17.5028Z" fill="white"/>
<path d="M17.4995 26.2519C17.4995 31.0832 13.5838 35 8.7536 35C3.91905 35 0 31.0832 0 26.2519C0 21.4173 3.91905 17.4983 8.7536 17.4983C13.5838 17.4994 17.4995 21.4184 17.4995 26.2519Z" fill="white"/>
<path d="M26.2541 32.2668C29.5766 32.2668 32.27 29.5734 32.27 26.251C32.27 22.9285 29.5766 20.2351 26.2541 20.2351C22.9317 20.2351 20.2383 22.9285 20.2383 26.251C20.2383 29.5734 22.9317 32.2668 26.2541 32.2668Z" fill="white"/>
</svg>
