<svg width="35" height="35" viewBox="0 0 35 35" fill="none" xmlns="http://www.w3.org/2000/svg">
<path d="M8.75065 14.765C12.0728 14.765 14.7659 12.0718 14.7659 8.74967C14.7659 5.42751 12.0728 2.73438 8.75065 2.73438C5.42849 2.73438 2.73535 5.42751 2.73535 8.74967C2.73535 12.0718 5.42849 14.765 8.75065 14.765Z" fill="black"/>
<path d="M26.2496 17.5012C31.0825 17.5012 35.0002 13.5834 35.0002 8.75061C35.0002 3.91778 31.0825 0 26.2496 0C21.4168 0 17.499 3.91778 17.499 8.75061C17.499 13.5834 21.4168 17.5012 26.2496 17.5012Z" fill="black"/>
<path d="M17.4979 26.2499C17.4979 31.0807 13.5825 34.9972 8.7528 34.9972C3.91869 34.9972 0 31.0807 0 26.2499C0 21.4158 3.91869 17.4971 8.7528 17.4971C13.5825 17.4982 17.4979 21.4169 17.4979 26.2499Z" fill="black"/>
<path d="M26.2506 32.264C29.5728 32.264 32.2659 29.5708 32.2659 26.2487C32.2659 22.9265 29.5728 20.2334 26.2506 20.2334C22.9285 20.2334 20.2354 22.9265 20.2354 26.2487C20.2354 29.5708 22.9285 32.264 26.2506 32.264Z" fill="black"/>
</svg>
