<svg width="35" height="35" viewBox="0 0 35 35" fill="none" xmlns="http://www.w3.org/2000/svg">
<path d="M8.75022 14.7661C12.0727 14.7661 14.7661 12.0727 14.7661 8.75022C14.7661 5.42776 12.0727 2.73438 8.75022 2.73438C5.42776 2.73438 2.73438 5.42776 2.73438 8.75022C2.73438 12.0727 5.42776 14.7661 8.75022 14.7661Z" fill="#141414"/>
<path d="M26.2514 17.5028C31.0847 17.5028 35.0028 13.5847 35.0028 8.75141C35.0028 3.91814 31.0847 0 26.2514 0C21.4181 0 17.5 3.91814 17.5 8.75141C17.5 13.5847 21.4181 17.5028 26.2514 17.5028Z" fill="#141414"/>
<path d="M17.4995 26.2516C17.4995 31.0829 13.5838 34.9998 8.7536 34.9998C3.91905 34.9998 0 31.0829 0 26.2516C0 21.4171 3.91905 17.498 8.7536 17.498C13.5838 17.4991 17.4995 21.4182 17.4995 26.2516Z" fill="#141414"/>
<path d="M26.2541 32.267C29.5766 32.267 32.27 29.5737 32.27 26.2512C32.27 22.9287 29.5766 20.2354 26.2541 20.2354C22.9317 20.2354 20.2383 22.9287 20.2383 26.2512C20.2383 29.5737 22.9317 32.267 26.2541 32.267Z" fill="#141414"/>
</svg>
